<?xml version="1.0"?>
<svg xmlns="http://www.w3.org/2000/svg" viewBox="0 0 512 512" width="512" height="512">
  <rect x="0" y="0" width="512" height="512" rx="112.64" ry="112.64" fill="#fb923c"></rect>
  <path d="M230.04 190.64L262.75 190.64L262.75 226.91L230.04 226.91L230.04 310.61Q230.04 319.29 233.92 323.40Q237.79 327.50 246.32 327.50L246.32 327.50Q249.11 327.50 252.52 327.04Q255.93 326.57 258.41 325.95L258.41 325.95L266.00 361.91Q258.10 364.24 250.73 365.32Q243.37 366.41 236.24 366.41L236.24 366.41Q210.36 366.41 196.25 353.47Q182.15 340.52 182.15 316.96L182.15 316.96L182.15 226.91L158.43 226.91L158.43 190.64L182.15 190.64L182.15 149.41L230.04 149.41L230.04 190.64Z" fill="#ffffff"></path>
  <circle cx="318.76880000000006" cy="329.984" r="36.5056" fill="#ffffff"></circle>
</svg>