<?xml version="1.0"?>
<svg xmlns="http://www.w3.org/2000/svg" viewBox="0 0 1200 640" width="1200" height="640">
  <path d="M273.83 262.15L302.68 262.15L302.68 294.14L273.83 294.14L273.83 367.97Q273.83 375.63 277.25 379.25Q280.66 382.87 288.18 382.87L288.18 382.87Q290.64 382.87 293.65 382.46Q296.66 382.05 298.85 381.50L298.85 381.50L305.55 413.22Q298.57 415.27 292.08 416.23Q285.59 417.19 279.30 417.19L279.30 417.19Q256.46 417.19 244.02 405.77Q231.58 394.36 231.58 373.57L231.58 373.57L231.58 294.14L210.66 294.14L210.66 262.15L231.58 262.15L231.58 225.78L273.83 225.78L273.83 262.15ZM407.02 350.06L407.02 350.06L407.02 262.15L449.27 262.15L449.27 415L408.66 415L408.66 387.25L407.02 387.25Q401.83 400.51 389.93 408.78Q378.04 417.05 360.81 416.91L360.81 416.91Q345.50 416.91 333.81 410.01Q322.12 403.11 315.63 390.25Q309.13 377.40 309.13 359.49L309.13 359.49L309.13 262.15L351.38 262.15L351.38 352.11Q351.38 365.51 358.63 373.37Q365.87 381.23 377.90 381.09L377.90 381.09Q385.56 381.09 392.12 377.61Q398.68 374.12 402.85 367.15Q407.02 360.18 407.02 350.06ZM504.40 326.68L504.40 326.68L504.40 415L462.15 415L462.15 262.15L503.71 262.15L503.71 289.36L505.22 289.36Q510.41 275.82 521.76 268.03Q533.11 260.23 550.20 260.23L550.20 260.23Q566.06 260.23 577.88 267.21Q589.71 274.18 596.27 287.03Q602.84 299.88 602.84 317.79L602.84 317.79L602.84 415L560.59 415L560.59 325.31Q560.59 311.37 553.34 303.37Q546.10 295.37 533.38 295.37L533.38 295.37Q524.91 295.37 518.34 299.13Q511.78 302.89 508.09 309.86Q504.40 316.84 504.40 326.68ZM659.20 417.87L659.20 417.87Q644.70 417.87 633.15 412.74Q621.60 407.62 615.04 397.50Q608.47 387.38 608.47 372.34L608.47 372.34Q608.47 359.49 613.12 350.95Q617.77 342.40 625.84 337.07Q633.90 331.74 644.16 329.00Q654.41 326.27 665.89 325.18L665.89 325.18Q679.16 323.95 687.22 322.71Q695.29 321.48 699.05 318.96Q702.81 316.43 702.81 311.64L702.81 311.64L702.81 310.96Q702.81 301.52 696.86 296.33Q690.91 291.13 680.11 291.13L680.11 291.13Q668.77 291.13 662.00 296.12Q655.23 301.11 653.04 308.77L653.04 308.77L613.80 305.63Q616.81 291.68 625.56 281.49Q634.31 271.31 648.19 265.77Q662.07 260.23 680.39 260.23L680.39 260.23Q693.10 260.23 704.72 263.24Q716.34 266.25 725.44 272.47Q734.53 278.69 739.86 288.54Q745.19 298.38 745.19 311.91L745.19 311.91L745.19 415L704.86 415L704.86 393.67L703.77 393.67Q700.07 400.92 693.92 406.32Q687.77 411.72 679.16 414.79Q670.54 417.87 659.20 417.87ZM671.36 388.61L671.36 388.61Q680.66 388.61 687.84 384.85Q695.02 381.09 699.05 374.74Q703.08 368.38 703.08 360.45L703.08 360.45L703.08 344.18Q701.17 345.41 697.68 346.50Q694.20 347.60 689.96 348.42Q685.72 349.24 681.48 349.85Q677.24 350.47 673.82 351.02L673.82 351.02Q666.30 352.11 660.70 354.50Q655.09 356.89 652.02 360.93Q648.94 364.96 648.94 370.98L648.94 370.98Q648.94 379.59 655.23 384.10Q661.52 388.61 671.36 388.61ZM800.18 472.15L757.94 472.15L757.94 262.15L799.50 262.15L799.50 287.99L801.41 287.99Q804.29 281.70 809.62 275.27Q814.95 268.85 823.56 264.54Q832.18 260.23 844.89 260.23L844.89 260.23Q861.71 260.23 875.72 268.92Q889.73 277.60 898.21 295.10Q906.69 312.60 906.69 338.85L906.69 338.85Q906.69 364.28 898.48 381.85Q890.28 399.41 876.27 408.44Q862.25 417.46 844.75 417.46L844.75 417.46Q832.45 417.46 823.84 413.36Q815.22 409.26 809.82 403.04Q804.42 396.82 801.41 390.53L801.41 390.53L800.18 390.53L800.18 472.15ZM831.36 383.83L831.36 383.83Q841.75 383.83 848.86 378.09Q855.96 372.34 859.66 362.16Q863.35 351.97 863.35 338.71L863.35 338.71Q863.35 325.45 859.72 315.40Q856.10 305.35 848.99 299.61Q841.88 293.87 831.36 293.87L831.36 293.87Q821.10 293.87 813.92 299.40Q806.75 304.94 802.99 314.99Q799.23 325.04 799.23 338.71L799.23 338.71Q799.23 352.25 803.05 362.36Q806.88 372.48 814.06 378.15Q821.24 383.83 831.36 383.83Z" fill="#1a1714"></path>
  
  <circle class="pulse-dot" cx="958.83984375" cy="387" r="32" fill="#fb923c"></circle>
  <path d="M327.67 545L318.43 545L318.43 528.94L320.41 528.94L320.41 543.20L327.67 543.20L327.67 545ZM348.99 545L340.41 545L340.41 543.20L343.69 543.20L343.69 530.74L340.41 530.74L340.41 528.94L348.99 528.94L348.99 530.74L345.71 530.74L345.71 543.20L348.99 543.20L348.99 545ZM368.24 545L365.54 545L361.40 528.94L363.45 528.94L366.17 539.85Q366.46 541.00 366.66 541.98Q366.86 542.95 366.94 543.46L366.94 543.46Q367.03 542.95 367.22 541.98Q367.41 541.00 367.69 539.85L367.69 539.85L370.40 528.94L372.40 528.94L368.24 545ZM393.94 545L384.70 545L384.70 528.94L393.94 528.94L393.94 530.74L386.66 530.74L386.66 535.72L393.17 535.72L393.17 537.50L386.66 537.50L386.66 543.20L393.94 543.20L393.94 545ZM456.69 545L454.71 545L454.71 530.72L450.31 530.72L450.31 528.92L461.09 528.92L461.09 530.72L456.69 530.72L456.69 545ZM477.90 545.22L477.90 545.22Q476.45 545.22 475.40 544.67Q474.36 544.12 473.80 543.08Q473.24 542.03 473.24 540.60L473.24 540.60L473.24 533.34Q473.24 531.89 473.80 530.85Q474.36 529.82 475.40 529.27Q476.45 528.72 477.90 528.72L477.90 528.72Q479.35 528.72 480.40 529.27Q481.44 529.82 482.00 530.85Q482.56 531.89 482.56 533.32L482.56 533.32L482.56 540.60Q482.56 542.03 482.00 543.08Q481.44 544.12 480.40 544.67Q479.35 545.22 477.90 545.22ZM477.90 543.44L477.90 543.44Q479.20 543.44 479.89 542.70Q480.58 541.96 480.58 540.60L480.58 540.60L480.58 533.34Q480.58 531.98 479.89 531.24Q479.20 530.50 477.90 530.50L477.90 530.50Q476.62 530.50 475.92 531.24Q475.22 531.98 475.22 533.34L475.22 533.34L475.22 540.60Q475.22 541.96 475.92 542.70Q476.62 543.44 477.90 543.44ZM500.10 545.22L500.10 545.22Q497.86 545.22 496.67 543.98Q495.48 542.73 495.48 540.60L495.48 540.60L495.48 528.94L497.46 528.94L497.46 540.60Q497.46 541.92 498.11 542.69Q498.76 543.46 500.10 543.46L500.10 543.46Q501.42 543.46 502.08 542.69Q502.74 541.92 502.74 540.60L502.74 540.60L502.74 528.94L504.72 528.94L504.72 540.60Q504.72 542.76 503.54 543.99Q502.37 545.22 500.10 545.22ZM519.70 545L517.72 545L517.72 528.94L522.70 528.94Q524.13 528.94 525.20 529.52Q526.28 530.11 526.88 531.14Q527.47 532.17 527.47 533.56L527.47 533.56Q527.47 535.19 526.62 536.35Q525.78 537.52 524.32 537.96L524.32 537.96L527.69 545L525.36 545L522.28 538.18L519.70 538.18L519.70 545ZM519.70 530.72L519.70 536.40L522.70 536.40Q523.93 536.40 524.68 535.62Q525.42 534.84 525.42 533.56L525.42 533.56Q525.42 532.26 524.68 531.49Q523.93 530.72 522.70 530.72L522.70 530.72L519.70 530.72ZM541.79 545L539.88 545L539.88 528.94L542.52 528.94L547.43 542.69Q547.38 542.14 547.33 541.34Q547.27 540.53 547.24 539.64Q547.21 538.75 547.21 537.96L547.21 537.96L547.21 528.94L549.12 528.94L549.12 545L546.48 545L541.60 531.25Q541.64 531.78 541.68 532.58Q541.73 533.38 541.76 534.27Q541.79 535.17 541.79 535.98L541.79 535.98L541.79 545ZM563.22 545L561.20 545L565.38 528.94L568.04 528.94L572.20 545L570.20 545L569.14 540.73L564.28 540.73L563.22 545ZM565.91 534.09L564.68 539.06L568.72 539.06L567.49 534.11Q567.14 532.70 566.94 531.76Q566.74 530.81 566.70 530.52L566.70 530.52Q566.66 530.81 566.46 531.76Q566.26 532.70 565.91 534.09L565.91 534.09ZM585.91 545L583.97 545L583.97 528.94L586.57 528.94L588.24 534.13Q588.48 534.84 588.68 535.53Q588.88 536.22 588.97 536.60L588.97 536.60Q589.08 536.22 589.25 535.53Q589.43 534.84 589.65 534.11L589.65 534.11L591.23 528.94L593.83 528.94L593.83 545L591.89 545L591.89 539.17Q591.89 538.20 591.96 536.97Q592.02 535.74 592.13 534.45Q592.24 533.16 592.37 531.99Q592.49 530.81 592.57 529.93L592.57 529.93L589.98 537.96L587.89 537.96L585.27 529.93Q585.38 530.79 585.49 531.92Q585.60 533.05 585.69 534.32Q585.78 535.58 585.84 536.84Q585.91 538.09 585.91 539.17L585.91 539.17L585.91 545ZM615.94 545L606.70 545L606.70 528.94L615.94 528.94L615.94 530.74L608.66 530.74L608.66 535.72L615.17 535.72L615.17 537.50L608.66 537.50L608.66 543.20L615.94 543.20L615.94 545ZM630.59 545L628.68 545L628.68 528.94L631.32 528.94L636.23 542.69Q636.18 542.14 636.13 541.34Q636.07 540.53 636.04 539.64Q636.01 538.75 636.01 537.96L636.01 537.96L636.01 528.94L637.92 528.94L637.92 545L635.28 545L630.40 531.25Q630.44 531.78 630.48 532.58Q630.53 533.38 630.56 534.27Q630.59 535.17 630.59 535.98L630.59 535.98L630.59 545ZM656.49 545L654.51 545L654.51 530.72L650.11 530.72L650.11 528.92L660.89 528.92L660.89 530.72L656.49 530.72L656.49 545ZM722.19 545.22L722.19 545.22Q720.60 545.22 719.47 544.69Q718.34 544.16 717.72 543.17Q717.11 542.18 717.08 540.82L717.08 540.82L719.06 540.82Q719.06 542.03 719.89 542.73Q720.71 543.44 722.19 543.44L722.19 543.44Q723.57 543.44 724.36 542.76Q725.14 542.07 725.14 540.86L725.14 540.86Q725.14 539.90 724.62 539.17Q724.10 538.44 723.13 538.16L723.13 538.16L720.96 537.48Q719.31 536.97 718.42 535.78Q717.52 534.59 717.52 532.99L717.52 532.99Q717.52 531.69 718.11 530.73Q718.69 529.78 719.75 529.24Q720.80 528.70 722.23 528.70L722.23 528.70Q724.34 528.70 725.62 529.88Q726.90 531.05 726.92 533.01L726.92 533.01L724.94 533.01Q724.94 531.82 724.22 531.15Q723.51 530.48 722.21 530.48L722.21 530.48Q720.93 530.48 720.22 531.10Q719.50 531.71 719.50 532.81L719.50 532.81Q719.50 533.80 720.03 534.53Q720.56 535.25 721.55 535.56L721.55 535.56L723.75 536.27Q725.36 536.77 726.24 537.98Q727.12 539.19 727.12 540.82L727.12 540.82Q727.12 542.14 726.50 543.13Q725.88 544.12 724.77 544.67Q723.66 545.22 722.19 545.22ZM744.30 545.22L744.30 545.22Q742.85 545.22 741.80 544.67Q740.76 544.12 740.20 543.08Q739.64 542.03 739.64 540.60L739.64 540.60L739.64 533.34Q739.64 531.89 740.20 530.85Q740.76 529.82 741.80 529.27Q742.85 528.72 744.30 528.72L744.30 528.72Q745.75 528.72 746.80 529.27Q747.84 529.82 748.40 530.85Q748.96 531.89 748.96 533.32L748.96 533.32L748.96 540.60Q748.96 542.03 748.40 543.08Q747.84 544.12 746.80 544.67Q745.75 545.22 744.30 545.22ZM744.30 543.44L744.30 543.44Q745.60 543.44 746.29 542.70Q746.98 541.96 746.98 540.60L746.98 540.60L746.98 533.34Q746.98 531.98 746.29 531.24Q745.60 530.50 744.30 530.50L744.30 530.50Q743.02 530.50 742.32 531.24Q741.62 531.98 741.62 533.34L741.62 533.34L741.62 540.60Q741.62 541.96 742.32 542.70Q743.02 543.44 744.30 543.44ZM763.97 545L761.99 545L761.99 528.92L771.45 528.92L771.45 530.72L763.93 530.72L763.93 536.07L770.88 536.07L770.88 537.87L763.97 537.87L763.97 545ZM789.69 545L787.71 545L787.71 530.72L783.31 530.72L783.31 528.92L794.09 528.92L794.09 530.72L789.69 530.72L789.69 545ZM809.18 545L806.70 545L804.85 528.94L806.74 528.94L807.95 540.82Q808.00 541.30 808.04 541.82Q808.08 542.34 808.12 542.80Q808.15 543.26 808.15 543.57L808.15 543.57Q808.19 543.26 808.23 542.80Q808.26 542.34 808.32 541.82Q808.37 541.30 808.44 540.82L808.44 540.82L809.93 528.94L811.98 528.94L813.34 540.82Q813.41 541.30 813.46 541.82Q813.52 542.34 813.57 542.80Q813.63 543.26 813.65 543.57L813.65 543.57L813.72 542.80Q813.74 542.34 813.79 541.82Q813.85 541.30 813.89 540.82L813.89 540.82L815.15 528.94L816.95 528.94L815.06 545L812.57 545L811.21 532.90Q811.16 532.39 811.11 531.91Q811.05 531.43 811.01 531.01Q810.97 530.59 810.94 530.33L810.94 530.33Q810.92 530.59 810.87 531.01Q810.81 531.43 810.77 531.91Q810.72 532.39 810.66 532.90L810.66 532.90L809.18 545ZM829.62 545L827.60 545L831.78 528.94L834.44 528.94L838.60 545L836.60 545L835.54 540.73L830.68 540.73L829.62 545ZM832.31 534.09L831.08 539.06L835.12 539.06L833.89 534.11Q833.54 532.70 833.34 531.76Q833.14 530.81 833.10 530.52L833.10 530.52Q833.06 530.81 832.86 531.76Q832.66 532.70 832.31 534.09L832.31 534.09ZM852.70 545L850.72 545L850.72 528.94L855.70 528.94Q857.13 528.94 858.20 529.52Q859.28 530.11 859.88 531.14Q860.47 532.17 860.47 533.56L860.47 533.56Q860.47 535.19 859.62 536.35Q858.78 537.52 857.32 537.96L857.32 537.96L860.69 545L858.36 545L855.28 538.18L852.70 538.18L852.70 545ZM852.70 530.72L852.70 536.40L855.70 536.40Q856.93 536.40 857.68 535.62Q858.42 534.84 858.42 533.56L858.42 533.56Q858.42 532.26 857.68 531.49Q856.93 530.72 855.70 530.72L855.70 530.72L852.70 530.72ZM882.34 545L873.10 545L873.10 528.94L882.34 528.94L882.34 530.74L875.06 530.74L875.06 535.72L881.57 535.72L881.57 537.50L875.06 537.50L875.06 543.20L882.34 543.20L882.34 545Z" fill="#9b8f7d"></path>
</svg>