<?xml version="1.0"?>
<svg xmlns="http://www.w3.org/2000/svg" viewBox="0 0 1200 480" width="1200" height="480">
  <path d="M273.83 182.15L302.68 182.15L302.68 214.14L273.83 214.14L273.83 287.97Q273.83 295.63 277.25 299.25Q280.66 302.87 288.18 302.87L288.18 302.87Q290.64 302.87 293.65 302.46Q296.66 302.05 298.85 301.50L298.85 301.50L305.55 333.22Q298.57 335.27 292.08 336.23Q285.59 337.19 279.30 337.19L279.30 337.19Q256.46 337.19 244.02 325.77Q231.58 314.36 231.58 293.57L231.58 293.57L231.58 214.14L210.66 214.14L210.66 182.15L231.58 182.15L231.58 145.78L273.83 145.78L273.83 182.15ZM407.02 270.06L407.02 270.06L407.02 182.15L449.27 182.15L449.27 335L408.66 335L408.66 307.25L407.02 307.25Q401.83 320.51 389.93 328.78Q378.04 337.05 360.81 336.91L360.81 336.91Q345.50 336.91 333.81 330.01Q322.12 323.11 315.63 310.25Q309.13 297.40 309.13 279.49L309.13 279.49L309.13 182.15L351.38 182.15L351.38 272.11Q351.38 285.51 358.63 293.37Q365.87 301.23 377.90 301.09L377.90 301.09Q385.56 301.09 392.12 297.61Q398.68 294.12 402.85 287.15Q407.02 280.18 407.02 270.06ZM504.40 246.68L504.40 246.68L504.40 335L462.15 335L462.15 182.15L503.71 182.15L503.71 209.36L505.22 209.36Q510.41 195.82 521.76 188.03Q533.11 180.23 550.20 180.23L550.20 180.23Q566.06 180.23 577.88 187.21Q589.71 194.18 596.27 207.03Q602.84 219.88 602.84 237.79L602.84 237.79L602.84 335L560.59 335L560.59 245.31Q560.59 231.37 553.34 223.37Q546.10 215.37 533.38 215.37L533.38 215.37Q524.91 215.37 518.34 219.13Q511.78 222.89 508.09 229.86Q504.40 236.84 504.40 246.68ZM659.20 337.87L659.20 337.87Q644.70 337.87 633.15 332.74Q621.60 327.62 615.04 317.50Q608.47 307.38 608.47 292.34L608.47 292.34Q608.47 279.49 613.12 270.95Q617.77 262.40 625.84 257.07Q633.90 251.74 644.16 249.00Q654.41 246.27 665.89 245.18L665.89 245.18Q679.16 243.95 687.22 242.71Q695.29 241.48 699.05 238.96Q702.81 236.43 702.81 231.64L702.81 231.64L702.81 230.96Q702.81 221.52 696.86 216.33Q690.91 211.13 680.11 211.13L680.11 211.13Q668.77 211.13 662.00 216.12Q655.23 221.11 653.04 228.77L653.04 228.77L613.80 225.63Q616.81 211.68 625.56 201.49Q634.31 191.31 648.19 185.77Q662.07 180.23 680.39 180.23L680.39 180.23Q693.10 180.23 704.72 183.24Q716.34 186.25 725.44 192.47Q734.53 198.69 739.86 208.54Q745.19 218.38 745.19 231.91L745.19 231.91L745.19 335L704.86 335L704.86 313.67L703.77 313.67Q700.07 320.92 693.92 326.32Q687.77 331.72 679.16 334.79Q670.54 337.87 659.20 337.87ZM671.36 308.61L671.36 308.61Q680.66 308.61 687.84 304.85Q695.02 301.09 699.05 294.74Q703.08 288.38 703.08 280.45L703.08 280.45L703.08 264.18Q701.17 265.41 697.68 266.50Q694.20 267.60 689.96 268.42Q685.72 269.24 681.48 269.85Q677.24 270.47 673.82 271.02L673.82 271.02Q666.30 272.11 660.70 274.50Q655.09 276.89 652.02 280.93Q648.94 284.96 648.94 290.98L648.94 290.98Q648.94 299.59 655.23 304.10Q661.52 308.61 671.36 308.61ZM800.18 392.15L757.94 392.15L757.94 182.15L799.50 182.15L799.50 207.99L801.41 207.99Q804.29 201.70 809.62 195.27Q814.95 188.85 823.56 184.54Q832.18 180.23 844.89 180.23L844.89 180.23Q861.71 180.23 875.72 188.92Q889.73 197.60 898.21 215.10Q906.69 232.60 906.69 258.85L906.69 258.85Q906.69 284.28 898.48 301.85Q890.28 319.41 876.27 328.44Q862.25 337.46 844.75 337.46L844.75 337.46Q832.45 337.46 823.84 333.36Q815.22 329.26 809.82 323.04Q804.42 316.82 801.41 310.53L801.41 310.53L800.18 310.53L800.18 392.15ZM831.36 303.83L831.36 303.83Q841.75 303.83 848.86 298.09Q855.96 292.34 859.66 282.16Q863.35 271.97 863.35 258.71L863.35 258.71Q863.35 245.45 859.72 235.40Q856.10 225.35 848.99 219.61Q841.88 213.87 831.36 213.87L831.36 213.87Q821.10 213.87 813.92 219.40Q806.75 224.94 802.99 234.99Q799.23 245.04 799.23 258.71L799.23 258.71Q799.23 272.25 803.05 282.36Q806.88 292.48 814.06 298.15Q821.24 303.83 831.36 303.83Z" fill="#f4eee4"></path>
  
  <circle class="pulse-dot" cx="958.83984375" cy="307" r="32" fill="#fb923c"></circle>
</svg>